<svg width="221" height="221" viewBox="0 0 221 221" fill="none" xmlns="http://www.w3.org/2000/svg">
<g clip-path="url(#clip0_42_10)">
<path d="M82.6607 0H0V82.6607H82.6607V0ZM68.8839 68.8839H13.7768V13.7768H68.8839V68.8839Z" fill="black"/>
<path d="M27.5535 27.5532H55.1071V55.1068H27.5535V27.5532ZM-6.10352e-05 220.428H82.6606V137.767H-6.10352e-05V220.428ZM13.7767 151.544H68.8839V206.651H13.7767V151.544Z" fill="black"/>
<path d="M27.5535 165.321H55.107V192.875H27.5535V165.321ZM137.768 0V82.6607H220.428V0H137.768ZM206.652 68.8839H151.544V13.7768H206.652V68.8839Z" fill="black"/>
<path d="M165.321 27.5536H192.875V55.1071H165.321V27.5536ZM27.5536 96.4375H0V123.991H41.3303V110.214H27.5536V96.4375ZM96.4375 123.991H123.991V151.545H96.4375V123.991ZM41.3303 96.4375H68.8839V110.214H41.3303V96.4375ZM123.991 165.321H96.4375V179.098H110.214V192.875H123.991V179.098V165.321ZM82.6607 96.4375V110.214H68.8839V123.991H96.4375V96.4375H82.6607ZM110.214 55.1071H123.991V82.6607H110.214V55.1071ZM123.991 110.214V123.991H151.545V96.4375H110.214V110.214H123.991ZM96.4375 82.6607H110.214V96.4375H96.4375V82.6607ZM123.991 192.875H151.545V220.429H123.991V192.875ZM96.4375 192.875H110.214V220.429H96.4375V192.875ZM123.991 151.545H137.768V165.321H123.991V151.545ZM123.991 41.3303V13.7768H110.214V0H96.4375V55.1071H110.214V41.3303H123.991ZM165.321 192.875H179.098V220.429H165.321V192.875ZM165.321 165.321H192.875V179.098H165.321V165.321ZM151.545 179.098H165.321V192.875H151.545V179.098ZM137.768 165.321H151.545V179.098H137.768V165.321ZM192.875 137.768V151.545H206.652V165.321H220.429V137.768H206.652H192.875ZM206.652 179.098H192.875V220.429H220.429V192.875H206.652V179.098ZM137.768 137.768V151.545H179.098V123.991H151.545V137.768H137.768ZM165.321 96.4375V110.214H192.875V123.991H220.429V96.4375H192.875H165.321Z" fill="black"/>
</g>
<defs>
<clipPath id="clip0_42_10">
<rect width="220.429" height="220.429" fill="white"/>
</clipPath>
</defs>
</svg>
