<svg width="222" height="221" viewBox="0 0 222 221" fill="none" xmlns="http://www.w3.org/2000/svg">
<g clip-path="url(#clip0_42_15)">
<path d="M83.4678 0H0.807129V82.6607H83.4678V0ZM69.691 68.8839H14.5839V13.7768H69.691V68.8839Z" fill="black"/>
<path d="M28.3607 27.5532H55.9143V55.1068H28.3607V27.5532ZM0.807129 220.428H83.4678V137.767H0.807129V220.428ZM14.5839 151.544H69.691V206.651H14.5839V151.544Z" fill="black"/>
<path d="M28.3607 165.321H55.9143V192.875H28.3607V165.321ZM138.575 0V82.6607H221.236V0H138.575ZM207.459 68.8839H152.352V13.7768H207.459V68.8839Z" fill="black"/>
<path d="M166.129 27.5536H193.682V55.1071H166.129V27.5536ZM28.3607 96.4375H0.807129V123.991H42.1375V110.214H28.3607V96.4375ZM97.2446 123.991H124.798V151.545H97.2446V123.991ZM42.1375 96.4375H69.691V110.214H42.1375V96.4375ZM124.798 165.321H97.2446V179.098H111.021V192.875H124.798V179.098V165.321ZM83.4678 96.4375V110.214H69.691V123.991H97.2446V96.4375H83.4678ZM111.021 55.1071H124.798V82.6607H111.021V55.1071ZM124.798 110.214V123.991H152.352V96.4375H111.021V110.214H124.798ZM97.2446 82.6607H111.021V96.4375H97.2446V82.6607ZM124.798 192.875H152.352V220.429H124.798V192.875ZM97.2446 192.875H111.021V220.429H97.2446V192.875ZM124.798 151.545H138.575V165.321H124.798V151.545ZM124.798 41.3303V13.7768H111.021V0H97.2446V55.1071H111.021V41.3303H124.798ZM166.129 192.875H179.905V220.429H166.129V192.875ZM166.129 165.321H193.682V179.098H166.129V165.321ZM152.352 179.098H166.129V192.875H152.352V179.098ZM138.575 165.321H152.352V179.098H138.575V165.321ZM193.682 137.768V151.545H207.459V165.321H221.236V137.768H207.459H193.682ZM207.459 179.098H193.682V220.429H221.236V192.875H207.459V179.098ZM138.575 137.768V151.545H179.905V123.991H152.352V137.768H138.575ZM166.129 96.4375V110.214H193.682V123.991H221.236V96.4375H193.682H166.129Z" fill="black"/>
</g>
<defs>
<clipPath id="clip0_42_15">
<rect width="220.429" height="220.429" fill="white" transform="translate(0.807129)"/>
</clipPath>
</defs>
</svg>
